<svg width="17" height="13" viewBox="0 0 17 13" fill="none" xmlns="http://www.w3.org/2000/svg">
<path d="M16.3838 5.46386L16.3829 5.46295L11.3432 0.447518C10.9656 0.0717952 10.3549 0.0731934 9.97911 0.450797C9.60334 0.828353 9.60478 1.43903 9.98234 1.8148L13.366 5.18208L0.964505 5.18208C0.431809 5.18208 -4.76212e-07 5.61389 -5.22782e-07 6.14659C-5.69352e-07 6.67928 0.431808 7.11109 0.964505 7.11109L13.366 7.11109L9.98239 10.4784C9.60483 10.8541 9.60338 11.4648 9.97916 11.8424C10.355 12.22 10.9657 12.2213 11.3432 11.8457L16.3829 6.83023L16.3838 6.82931C16.7616 6.45229 16.7604 5.83963 16.3838 5.46386Z" fill="black"/>
</svg>
